<?xml version="1.0" encoding="utf-8"?>
<!-- Generator: Adobe Illustrator 16.0.0, SVG Export Plug-In . SVG Version: 6.00 Build 0)  -->
<!DOCTYPE svg PUBLIC "-//W3C//DTD SVG 1.1//EN" "http://www.w3.org/Graphics/SVG/1.1/DTD/svg11.dtd">
<svg version="1.1" id="Layer_1" xmlns="http://www.w3.org/2000/svg" xmlns:xlink="http://www.w3.org/1999/xlink" x="0px" y="0px"
	 width="512px" height="512px" viewBox="0 0 512 512" enable-background="new 0 0 512 512" xml:space="preserve">
<path d="M512,244.406V448c0,35.344-28.656,64-64,64H64c-35.344,0-64-28.656-64-64V244.406c61.109,49.813,133.531,79.031,208,87.906
	V352c8.063,19.375,27,32,48,32s39.938-12.625,48-32v-19.688C378.469,323.438,450.906,294.25,512,244.406z M512,192v10.75
	l-10.531,9.188C444.313,261.844,375.219,291,304,300.125V288h-96v12.125C136.781,291,67.703,261.844,10.516,211.938L0,202.75V192
	c0-35.344,28.656-64,64-64h32V64c0-35.344,28.656-64,64-64h192c35.344,0,64,28.656,64,64v64h32C483.344,128,512,156.656,512,192z
	 M128,128h256V64c0-17.625-14.344-32-32-32H160c-17.641,0-32,14.375-32,32V128z"/>
</svg>
