<?xml version="1.0" encoding="UTF-8" standalone="no"?>
<svg
   xmlns:dc="http://purl.org/dc/elements/1.1/"
   xmlns:cc="http://creativecommons.org/ns#"
   xmlns:rdf="http://www.w3.org/1999/02/22-rdf-syntax-ns#"
   xmlns:svg="http://www.w3.org/2000/svg"
   xmlns="http://www.w3.org/2000/svg"
   viewBox="0 0 682.66669 682.66669"
   height="682.66669"
   width="682.66669"
   xml:space="preserve"
   id="svg2"
   version="1.1"><metadata
     id="metadata8"><rdf:RDF><cc:Work
         rdf:about=""><dc:format>image/svg+xml</dc:format><dc:type
           rdf:resource="http://purl.org/dc/dcmitype/StillImage" /></cc:Work></rdf:RDF></metadata><defs
     id="defs6"><clipPath
       id="clipPath18"
       clipPathUnits="userSpaceOnUse"><path
         id="path16"
         d="M 0,512 H 512 V 0 H 0 Z" /></clipPath></defs><g
     transform="matrix(1.3333333,0,0,-1.3333333,0,682.66667)"
     id="g10"><g
       id="g12"><g
         clip-path="url(#clipPath18)"
         id="g14"><g
           transform="translate(227.9176,79.1873)"
           id="g20"><path
             id="path22"
             style="fill:#00caff;fill-opacity:1;fill-rule:nonzero;stroke:none"
             d="m 0,0 v 35.501 c 0,12.621 -7.731,23.871 -19.451,28.847 -43.869,18.622 -74.575,62.183 -74.575,112.465 0,67.021 54.55,122.107 122.107,122.107 67.559,0 122.107,-55.086 122.107,-122.107 C 150.188,97.735 89.017,22.961 0,0 m 28.081,355.879 c -99.072,0 -179.066,-80.781 -179.066,-179.066 0,-98.285 79.994,-179.067 179.066,-179.067 99.073,0 179.068,80.782 179.068,179.067 0,98.285 -79.995,179.066 -179.068,179.066" /></g></g></g></g></svg>