<?xml version="1.0" encoding="utf-8"?>
<!-- Generated by IcoMoon.io -->
<!DOCTYPE svg PUBLIC "-//W3C//DTD SVG 1.1//EN" "http://www.w3.org/Graphics/SVG/1.1/DTD/svg11.dtd">
<svg version="1.1" xmlns="http://www.w3.org/2000/svg" xmlns:xlink="http://www.w3.org/1999/xlink" width="512" height="512" viewBox="0 0 512 512">
<g>
</g>
	<path d="M7029.965 37002.681c0 15.394-12.48 27.874-27.873 27.874-15.394 0-27.873-12.48-27.873-27.874 0-15.394 12.48-27.874 27.873-27.874 15.394 0 27.873 12.48 27.873 27.874z" fill="#000000" />
	<path d="M6832.282 37085.624l-1.218 0.215-1.177 0.563z" fill="#000000" />
	<path d="M6870.681 37069.957l-0.051-0.502c-0.113-0.942-0.072-1.863-0.041-2.775l-39.526 19.149 1.218-0.215-2.386 0.778 1.167-0.563-20.89 3.645 30.966 5.56 34.498-12.165-4.792-12.462-0.164-0.45z" fill="#000000" />
	<path d="M6844.068 37101.056l-2.233-0.399-2.099 0.707z" fill="#000000" />
	<path d="M6877.44 37088.921l-35.605 11.735 2.233 0.399-4.332 0.297 2.099-0.696-72.212-12.861-2.663 1.382-26.276 23.327 29.757-6.533-0.973-0.185 5.611-0.84-4.639 1.024 72.704 12.944 2.15-0.696 47.626-15.719c-3.123-0.717-6.073-2.038-8.663-4.065-3.175-2.519-5.448-5.817-6.82-9.513z" fill="#000000" />
	<path d="M6769.48 37105.797l0.973 0.185 4.639-1.024z" fill="#000000" />
	<path d="M6878.535 37067.366c0 0.297-0.113 0.573-0.092 0.912l4.598 11.981 1.813-0.645-6.318-12.247z" fill="#000000" />
	<path d="M6885.079 37086.402c0.87 2.253 2.119 4.321 4.065 5.857 2.898 2.304 6.502 3.318 10.168 2.898 0 0 2.498-0.297 6.38-0.738l-4.403-13.363-16.21 5.346z" fill="#000000" />
	<path d="M6997.391 37038.622h-0.092l0.020 0.082z" fill="#000000" />
	<path d="M6876.16 37083.904c0.041 0.256 0.133 0.522 0.174 0.778l0.072 0.185-0.246-0.963z" fill="#000000" />
	<path d="M6978.887 37030.635l0.123 0.020 0.409-0.103z" fill="#000000" />
	<path d="M6878.434 37068.575c-0.020-0.113 0.020-0.215 0.020-0.287l-0.246-0.676 0.225 0.963z" fill="#000000" />
	<path d="M7061.985 37029.868l-63.815 12.585-24.167 5.264c5.427 6.082 18.473 16.589 31.181 29.122l60.877-32.082 184.709 7.004 2.078-11.315-190.864-10.578z" fill="#000000" />
	<path d="M7081.626 37082.696l-6.451-4.188-5.52 5.468z" fill="#000000" />
	<path d="M7102.331 37051.556l-27.157 26.952 6.451 4.188-11.971 1.28 5.52-5.468-27.648-17.838-19.671 10.086 49.89 32.226 5.499-5.478 43.12-44.964z" fill="#000000" />
	<path d="M7029.637 37089.065l-5.673-4.649-6.492 5.223z" fill="#000000" />
	<path d="M7066.736 37050.204l-42.773 34.212 5.673 4.649-12.165 0.573 6.492-5.223-8.766-7.137-10.834 5.56-3.4-2.704-34.97-33.26-8.468 11.796 66.959 50.463 5.878-5.315 58.675-52.9z" fill="#000000" />
	<path d="M6970.43 37040.702l-3.789 5.274 7.711-2.079z" fill="#000000" />
	<path d="M6965.412 37046.302l0.583 0.573 0.645-0.901z" fill="#000000" />
	<path d="M6966.641 37045.975l7.711-2.079c0 0 16.773-3.881 18.821-4.423-2.222-5.683-7.824-9.503-14.162-8.817l-88.412 22.518c-7.178 0.84-12.267 7.096-12.052 14.192l6.318 12.247-1.813 0.645 0.686 1.792 0.185 0.45 0.051 0.502c0.133 1.198 0.666 2.304 1.106 3.399l16.22-5.335 4.403 13.363c19.763-2.304 79.544-9.277 79.565-9.277 2.058-0.215 3.953-1.116 5.703-2.283l-12.913-24.535-12.052-11.448 0.635-0.912z" fill="#000000" />
	<path d="M256.010 24.934c-127.437 0-231.065 103.68-231.065 231.076 0 127.375 103.629 231.055 231.065 231.055 127.396 0 231.045-103.68 231.045-231.055 0-127.396-103.649-231.076-231.045-231.076zM404.849 170.096l-147.241 172.769-5.366-2.304 135.608-190.833 16.998 20.368zM376.32 149.975l-129.454 188.314-6.758-3.399 115.22-205.281 20.992 20.368zM343.644 134.339l-108.37 199.004-6.256-2.673 93.328-217.375 21.299 21.043zM310.272 122.972l-86.62 205.425-6.267-2.663 72.284-224.092 20.603 21.33zM256.082 90.757l23.972 18.77-66.704 214.498-5.806-2.478 48.537-230.789zM248.002 100.157l-45.803 219.095-6.267-2.386 26.163-235.161 25.907 18.453zM187.146 74.547l27.065 15.749-22.498 223.949-7.68-3 3.113-236.697zM188.006 421.99c-24.177-10.301-35.43-38.257-25.139-62.464l87.614 37.325c-10.311 24.176-38.287 35.44-62.474 25.139zM252.518 391.035l-86.866-36.997 14.838-34.796 86.835 37.017-14.807 34.775zM268.329 347.423l-6.298-2.652 154.358-173.927 13.538 23.603-161.597 152.975z" fill="#000000" />
</svg>
